<?xml version="1.0" encoding="utf-8"?>
<!-- Generator: Adobe Illustrator 25.0.0, SVG Export Plug-In . SVG Version: 6.00 Build 0)  -->
<svg version="1.1" id="Capa_1" xmlns="http://www.w3.org/2000/svg" xmlns:xlink="http://www.w3.org/1999/xlink" x="0px" y="0px"
	 viewBox="0 0 315 305" style="enable-background:new 0 0 315 305;" xml:space="preserve">
<style type="text/css">
	.st0{fill:none;stroke:#1D71B8;stroke-width:4;stroke-miterlimit:10;}
	.st1{fill:none;stroke:#1D71B8;stroke-width:3;stroke-miterlimit:10;}
</style>
<path class="st0" d="M247.7,263.3H54.6c-6.6,0-12-5.4-12-12V54.5c0-6.6,5.4-12,12-12h193.1c6.6,0,12,5.4,12,12v196.8
	C259.7,257.9,254.3,263.3,247.7,263.3z"/>
<path class="st0" d="M227.8,72.3"/>
<path class="st1" d="M199.2,136.5c0-13.9,0-23.8,0-25.5"/>
<path class="st1" d="M166.3,110.8c-0.8,0-1.3,0-1.3,0s0,15.6,0,26.1"/>
<path class="st1" d="M165,166.2c0,29.2,0,80.4,0,80.4h34.2c0,0,0-42.8,0-80.3"/>
<path class="st1" d="M163.2,149.1"/>
<path class="st1" d="M165,135.4C165,135.4,165,135.4,165,135.4l-23.6,0v32.3H165c0,0,0,0,0-0.1"/>
<path class="st1" d="M199.2,167.5c0,0.1,0,0.2,0,0.2h28.7v-32.3h-28.7c0,0,0,1,0,1.5"/>
<path class="st1" d="M199.2,123.6c0-0.2,0-0.3,0-0.5v-15.3c0-3.5,2.8-6.3,6.3-6.3c0,0,13.4,0,18,0"/>
<path class="st1" d="M165.1,113.2c0-0.2,0-0.4,0-0.6"/>
<path class="st1" d="M165.1,112.5c0-0.7-0.1-1.5-0.1-2.2c0-20.4,14.9-36.9,33.2-36.9c0.4,0,0.8,0,1.1,0"/>
<path class="st1" d="M198.2,73.7c0-0.2,0-0.3,0-0.3h29.6v28.1c0,0-12.6,0-21.3,0"/>
</svg>
