<?xml version="1.0" encoding="utf-8"?>
<!-- Generator: Adobe Illustrator 25.0.0, SVG Export Plug-In . SVG Version: 6.00 Build 0)  -->
<svg version="1.1" id="Capa_1" xmlns="http://www.w3.org/2000/svg" xmlns:xlink="http://www.w3.org/1999/xlink" x="0px" y="0px"
	 viewBox="0 0 1500 1500" style="enable-background:new 0 0 1500 1500;" xml:space="preserve">
<style type="text/css">
	.st0{fill:#010303;}
	.st1{fill:#5CDFE4;}
	.st2{fill:#5CE0E5;}
	.st3{fill:#06DAE4;}
	.st4{fill:#06DAE5;}
	.st5{fill:#07D9E4;}
	.st6{fill:#5FE0E5;}
	.st7{fill:#5DE0E5;}
	.st8{fill:#5AE0E5;}
	.st9{fill:#6FE8EC;}
	.st10{fill:#D7F8F7;}
	.st11{fill:#E2F6F6;}
	.st12{fill:#82E7E6;}
	.st13{fill:#52E0E5;}
	.st14{fill:#0AD9E3;}
	.st15{fill:#F1F9F6;}
	.st16{fill:#E6F7F6;}
	.st17{fill:#25DCE4;}
	.st18{fill:#D0F5F7;}
	.st19{fill:#EAF3F3;}
	.st20{fill:#D3EBEA;}
	.st21{fill:#DFF5F4;}
	.st22{fill:#CBF7F7;}
	.st23{fill:#E9F3F4;}
	.st24{fill:#E1FAFB;}
	.st25{fill:#E6F9FA;}
</style>
<g>
	<g>
		<path class="st0" d="M771.82,1037.41c1.81,30.94,3.55,61.88,5.46,92.82c0.52,8.51,1.72,16.97,2.22,25.48
			c0.17,2.84-0.84,5.75-3.58,8.71c-10.22-45.64-20.43-91.28-30.65-136.91c-4.35-27.15-8.61-54.31-13.19-81.42
			c-0.51-3.01-2.14-7.38-4.41-8.32c-23.22-9.66-46.65-18.81-70.12-27.87c-2.57-0.99-5.7-0.57-10.25-0.94
			c14.24,12,31.03,18.79,38.89,36.03c-12.78,1.85-16.81,1.3-25.41-5.52c-12.15-9.65-23.85-19.86-35.73-29.86
			c-0.88-0.74-1.76-1.55-2.45-2.47c-5.9-7.97-3.39-14.64,6.3-15.55c6.52-0.61,13.17-0.42,19.71,0.08c5.87,0.45,11.68,1.83,17.51,2.8
			c0.41-0.71,0.81-1.42,1.22-2.12c-3.43-2.67-6.78-5.44-10.31-7.97c-12.89-9.25-27.3-16.94-38.43-27.95
			c-16.05-15.88-17.17-18.87,3.88-31.08c8.09-0.36,16.18-0.72,25.34-1.13c-3.45-3.51-6.61-6.78-9.82-10
			c-6.31-6.31-12.59-12.66-19.01-18.85c-5.17-4.98-5.37-11.66-3.64-17.27c0.71-2.31,7.65-3.2,11.88-3.81
			c5.47-0.78,11.08-0.63,18.53-0.97c-3.12-5.3-5.05-8.53-6.92-11.78c-1.93-3.34-4.24-6.55-5.61-10.11
			c-3.37-8.82-1.1-13.88,8.11-15.13c6.23-0.85,13.1,0.08,19.23,1.83c25.68,7.36,48.18,20.9,69.29,37.01
			c6.27,4.78,12.88,9.11,19.34,13.64c0.81-0.8,1.62-1.59,2.43-2.39c-1.96-2.69-3.38-6.16-5.97-7.94
			c-13.33-9.15-19.74-23.71-28.64-36.25c-2.19-3.08-2.1-8.18-2.08-12.34c0.02-7.78,1.38-8.8,8.97-6.84
			c18.22,4.7,35.18,12.51,49.81,24.26c15.7,12.61,30.45,26.39,45.59,39.69c3.6,3.16,7.12,6.4,10.67,9.6
			c0.64-0.51,1.29-1.03,1.93-1.54c-0.59-2.06-0.73-4.42-1.85-6.15c-5.85-9.09-10.86-19.03-18.15-26.83
			c-22.24-23.8-45.67-46.49-68.03-70.18c-6.96-7.38-14.16-8.42-22.93-5.8c-2.97,0.89-5.87,1.96-8.82,2.93
			c-23.51,7.76-47.01,15.58-70.54,23.25c-6.37,2.08-12.89,4.59-21.07-1.02c9.07-5.11,16.83-10.16,25.14-14.02
			c16.12-7.49,32.54-14.3,48.84-21.4c6.14-2.24,12.52-3.98,18.34-6.84c7.5-3.69,8.76-7.54,5.03-14.91
			c-4.42-8.75-5.15-17.79-3.45-27.14c0.84-4.6,0.64-8.02-4.01-10.76c-13.77-8.13-21.56-20.75-25.67-35.9
			c0.99-2.36,1.98-4.71,2.96-7.07c14.23-7.41,16.88-11.85,13.89-23.29c0.61-3.31,0.1-7.65,2.03-9.74
			c6.14-6.64,13.74-11.49,23.42-9.7c7.17,1.33,14.14,3.69,21.27,5.24c2.46,0.54,5.72,0.99,7.63-0.15
			c10.32-6.24,11.27-20.79,2.76-29.63c-3.26-3.39-5.37-7.9-8-11.91c2.59-13.7,7.73-26.3,14.59-38.52
			c10.3-18.35,26.12-25.42,46.17-25.4c15.52,0.02,29.79,4.4,42.68,12.92c12.43,8.22,16.47,20.36,11.42,34.38
			c-6.07,16.83-16.71,28.35-35.69,30.47c-7.19,0.8-14.19,3.2-21.28,4.87c-15.84,3.09-18.31,6.83-14.36,21.92
			c1.03,3.94,2.25,7.84,3.66,12.71c-6.03-0.82-11.05-1.5-16.07-2.18c24.47,21.81,54.89,36.39,71.35,67.02
			c-5.7,1.96-10.39,3.57-15.08,5.19c-7.81-2.02-15.59-4.18-23.46-5.98c-2.75-0.63-5.7-0.35-8.56-0.48c0.13-0.51,0.26-1.02,0.38-1.53
			c-0.31-0.06-0.62-0.11-0.92-0.17c0.27,0.52,0.54,1.04,0.81,1.55c4.72,7.32,9.45,14.63,14.24,22.04c-2.06,1.45-3.22,2.59-4.61,3.17
			c-6.74,2.79-7.46,6.33-2.72,12.1c3.11,3.79,5.71,8.49,6.95,13.2c3.03,11.5-0.82,15.34-12.52,12.84
			c-7.9-1.68-15.62-4.19-23.43-6.33c-0.88-0.14-1.77-0.29-2.65-0.43c0.41,0.64,0.81,1.27,1.22,1.91c5.44,4.77,11,9.41,16.28,14.35
			c4.75,4.44,10.1,8.62,13.57,13.97c5.88,9.05,4.13,11.81-6.68,13.51c-8.26,1.29-9.17,3.62-3.81,10.21
			c1.18,1.45,2.91,2.44,4.38,3.64c4.72,5.08,9.14,10.48,14.21,15.17c39.37,36.43,65.13,81.21,82.02,131.69
			c4.37,13.06,6.89,26.08,6.31,39.84c-0.46,10.97-5.77,15.02-16.11,11.01c-3.53-1.37-6.36-4.45-9.81-6.13
			c-7.24-3.53-14.56-6.98-22.08-9.82c-4.71-1.78-6.74,0.49-7.04,5.77c-0.29,5.13-2.16,10.18-3.33,15.26
			c-15.46,2.12-27.23-9.26-42.25-12.27c-6.82,37.43-13.5,74.13-20.38,111.89c-8.63-4.94-8.8-11.5-8.81-18.17
			c-0.04-24.07,0-48.15-0.22-72.22c-0.06-6.24-0.96-12.47-1.48-18.71c-3.45,1.63-5.77,3.38-5.83,5.2
			C770.38,961.43,767.45,999.43,771.82,1037.41z"/>
		<path class="st1" d="M694.48,675.78c-16.3,7.09-32.73,13.91-48.84,21.4c-8.31,3.86-16.07,8.91-25.14,14.02
			c8.18,5.62,14.69,3.1,21.07,1.02c23.54-7.68,47.03-15.49,70.54-23.25c2.94-0.97,5.85-2.04,8.82-2.93
			c8.78-2.63,15.97-1.58,22.93,5.8c22.36,23.69,45.78,46.38,68.03,70.18c7.29,7.79,12.3,17.74,18.15,26.83
			c1.11,1.73,1.26,4.08,1.85,6.15c-0.64,0.51-1.29,1.03-1.93,1.54c-3.56-3.2-7.08-6.44-10.67-9.6
			c-15.14-13.29-29.9-27.08-45.59-39.69c-14.62-11.75-31.58-19.56-49.81-24.26c-7.59-1.96-8.94-0.94-8.97,6.84
			c-0.01,4.17-0.1,9.26,2.08,12.34c8.9,12.54,15.31,27.1,28.64,36.25c2.59,1.78,4.01,5.25,5.97,7.94c-0.81,0.8-1.62,1.59-2.43,2.39
			c-6.46-4.53-13.07-8.86-19.34-13.64c-21.1-16.11-43.6-29.65-69.29-37.01c-6.12-1.75-12.99-2.68-19.23-1.83
			c-9.2,1.25-11.48,6.32-8.11,15.13c1.36,3.57,3.68,6.77,5.61,10.11c1.87,3.26,3.8,6.48,6.92,11.78
			c-7.45,0.34-13.05,0.19-18.53,0.97c-4.24,0.61-11.17,1.5-11.88,3.81c-1.73,5.6-1.53,12.29,3.64,17.27
			c6.43,6.19,12.7,12.54,19.01,18.85c3.22,3.22,6.38,6.49,9.82,10c-9.16,0.41-17.25,0.77-25.34,1.13c0.41-2.19,1.04-4.36,1.17-6.56
			c0.1-1.6-0.07-4.46-0.79-4.68c-10.88-3.49-21.71-8.15-32.89-9.39c-8.69-0.97-16.11-3-23.63-7.22c-9.24-5.19-19-10.71-30.04-9.3
			c-5.58,0.71-7.33-0.6-7.1-5.44c0.3-6.38-3.78-7.39-8.26-6.29c-4.41,1.08-8.46,3.62-12.7,5.45c-6.61,2.84-13.24,5.62-20.51,8.7
			c-3.43-8.63-8.68-17.04-21.7-14.71c-1.2,0.21-2.85-3.58-4.68-5.03c-3.65-2.89-7.39-5.79-11.5-7.9c-1.1-0.56-3.6,2.43-5.55,2.59
			c-9.24,0.78-18.91,4.82-27.3-2.79c4.98,0,9.96,0,15.6,0c-8.79-13.16-8.79-13.16-21.19-16.47c1.2-1.89,2.21-3.62,3.36-5.26
			c1.01-1.44,2.16-2.78,3.24-4.14c-0.71-0.76-1.15-1.68-1.77-1.83c-8.01-1.9-16.18-3.26-24.06-5.6
			c-14.91-4.42-29.79-9.01-44.44-14.24c-9.42-3.36-12.7-7.64-16.08-17.64c7.29-0.4,14.35-0.79,22.54-1.25
			c-1.76-3.26-2.87-5.33-4.86-9.02c9.22,2.01,16.93,3.19,24.28,5.5c3.95,1.24,7.16,7.52,11.14,0.23c5.53,2.33,11.1,4.56,16.58,7
			c4.89,2.18,9.55,4.97,14.58,6.75c2.56,0.91,5.7,0.21,8.58,0.23c-0.09-3.39-0.18-6.78-0.26-10.17c1.3-5.25,5.63-4.36,9.35-4.52
			c5.11-0.22,10.22-0.28,15.33-0.41c0.1-0.91,0.19-1.81,0.29-2.72c-8.4-3.47-14.34-12.15-25.09-10.68
			c-8.4-3.73-19.29-2.51-24.53-12.75c-0.65-1.27-4.2-1.21-6.44-1.49c-3.25-0.4-6.52-0.54-9.89-1.88c9.7-3.05,17.57-11.5,29.16-7.94
			c3.7,1.14,4.14-0.26,1.33-8.03c9.42,2.48,17.77,4.68,26.12,6.9c0.35,0.09,0.67,0.69,0.92,0.64c15.19-2.87,26.22,8.31,39.56,11.57
			c3,0.73,6.48-0.49,9.74-0.81c-0.57-2.65-0.81-5.43-1.77-7.92c-1.8-4.68-0.15-6.58,4.52-6.6c5.58-0.02,11.16,0,19.59,0
			c-6.51-6.23-14.06-7.89-13.05-15.71c-7.98-0.28-13.15-9.31-21.98-7.04c-1.81,0.46-4.8,1.45-5.39,0.71
			c-6.06-7.64-15.09-5.34-23.06-7.39c9.71-3.92,18.59-9.64,29.81-7.8c4.63,0.76,9.56-0.32,14.36-0.54c1.08-0.05,2.83-0.42,3.15,0.08
			c4.22,6.53,8,6.24,11.98-0.26c0.39-0.64,3.7-0.59,3.97-0.04c2.69,5.49,12.24,3.17,12.86,11.67c0.1,1.42,7.12,2.32,10.95,3.46
			c1.54,2.94,3.08,5.89,4.63,8.83c-5.12,2.21-10.24,4.43-15.63,6.76c5.62,12.58,18.9,3.84,27.4,9.93c0-2.77,0-5.02,0-7.27
			c0,0-0.12,0.11-0.12,0.11c1.12-0.17,3.22-0.38,3.22-0.49c-0.4-7.74,7.99-8.42,10.79-13.51c2.86-0.91,5.85-1.53,8.54-2.8
			c6.34-2.97,12.65-3.51,18.45,0.69c9.3,6.76,19.63,11.03,30.45,14.65c4.23,1.41,8.84,3.96,11.49,7.38
			c8.99,11.57,21.92,13.94,34.77,14.56C679.77,666.65,688.06,668.07,694.48,675.78z"/>
		<path class="st2" d="M850.68,927.73c1.17-5.08,3.04-10.13,3.33-15.26c0.3-5.27,2.33-7.54,7.04-5.77
			c7.53,2.84,14.84,6.29,22.08,9.82c3.45,1.68,6.28,4.76,9.81,6.13c10.34,4.01,15.64-0.04,16.11-11.01
			c0.58-13.76-1.94-26.78-6.31-39.84c-16.89-50.48-42.64-95.26-82.02-131.69c-5.07-4.69-9.49-10.1-14.21-15.17
			c11.05-4,10.98-3.89,16.28,5.1c1.11,1.89,4.23,4.41,5.62,3.99c5.83-1.76,8.46,1.71,11.56,5.32c1.97,2.29,4.27,4.81,6.96,5.87
			c4.12,1.63,9.14,1.26,12.95,3.3c3.42,1.83,5.32,6.3,8.6,8.61c3.24,2.28,7.42,3.21,11.09,4.92c7.91,3.68,15.57,7.99,23.7,11.1
			c10.17,3.89,21.57,4.54,29.35,14.09c1.86,2.27,8.69,5.13,9.91-3.02c0.02-0.12,2.6,0.14,3.98,0.22c-5.1,4.45-0.59,6.96,2.31,8.86
			c7.61,4.96,16.38,8.44,23.15,14.29c6.97,6.01,14.15,8.65,22.94,8.16c9.43,2.34,18.97,4.34,28.23,7.23
			c3.08,0.96,6.57,3.68,7.91,6.53c2.34,4.99,7.08,12.36,13.04,16.71c-2.24,7.64-6.67,4.49-11.33,2.64
			c-3.25-1.3-6.95-1.46-10.45-2.12c-6.7-0.91-13.42-1.75-20.11-2.74c-7.11-1.05-14.2-2.24-23.67-3.74c2.56,3.8,3.24,5.75,4.62,6.73
			c19.11,13.54,38.1,27.25,57.57,40.25c9.24,6.17,19.23,11.3,29.25,16.14c5.64,2.73,13.8-0.74,17.02-5.95
			c2.64-4.28,1.57-7.56-3.14-9.04c-6.21-1.94-12.66-3.13-18.84-5.15c-4.33-1.41-8.62-3.29-12.49-5.66
			c-3.74-2.29-6.92-5.5-11.06-8.88c1.06-2.36,10.41-0.71,7.14-8.37c7.13,1.32,13.48,0.9,16.71-7.09c0.37-0.92,1.5-1.54,2.28-2.3
			c7.06,1.56,14.11,3.13,21.17,4.69c0.14,2.93-2.66,6,2.58,8.26c7.64,3.29,14.44,8.46,21.89,12.27c6.08,3.11,12.59,5.4,18.9,8.05
			c9.08,8.76,18.38,17.02,31.93,18.06c3.19,0.24,6.27,1.89,9.39,2.9c-1.23,3.02-1.68,6.96-3.88,8.83c-2.5,2.12-8.36,4.31-9.62,3.12
			c-4.14-3.9-4.78-1.39-6.34,1.77c-3,6.07-6.26,12.02-9.41,18.03c-8.65-2.69-17.39,0.66-20,8.58c-1.78,5.38-2.04,11.27-2.98,16.93
			c-1.18,0.68-2.36,1.35-3.55,2.03c1.28,1.45,3.24,2.72,3.7,4.4c0.85,3.12,0.83,6.47,1.17,9.73c-2.75,0.25-5.5,0.55-8.26,0.73
			c-1.52,0.1-3.06,0.02-5.9,0.02c4.16,5.11,7.77,9.55,12.05,14.83c-3.57,1.82-7.22,3.41-10.6,5.46c-4.45,2.68-8.24,3.61-12.29-1
			c-1.49-1.69-4.62-2.08-7.1-2.61c-0.37-0.08-1.73,2.29-1.86,3.6c-0.44,4.36,2.76,4.83,6.02,5.24c0.98,0.12,1.88,0.86,4.08,1.93
			c-3.4,2.44-6.06,4.29-8.65,6.25c-2.58,1.95-6.21,3.51-7.36,6.12c-2.25,5.1-6.07,4.52-9.65,3.65c-4.96-1.2-1.69-4.5-1.46-7.28
			c0.17-2.09-1.04-5.35-2.67-6.31c-3.81-2.23-8.25-3.4-12.43-4.99c-0.11-0.75,0.06-1.8-0.37-2.18c-1.2-1.07-2.64-1.87-3.99-2.77
			c0.53,1.53,0.93,3.13,1.65,4.57c0.27,0.54,1.28,0.7,1.95,1.03c1.4,2.65,3.12,5.18,4.12,7.97c1.61,4.5,1.77,8.83-4.93,8.32
			c-7.07-0.53-3.38,3.64-3.09,6.4c-12.72-3.17-22.96-9.78-30.09-20.88c-6.69,6.68-10.79,6.52-14.55-1.8
			c-1.29-2.84-1.23-1.57-3.63-1.52c-8.95,0.21-17.99-1.32-26.9-2.77c-1.37-0.22-3.6-3.95-3.13-5.19c3.9-10.41-9.52-13.23-9.3-21.87
			c0.01-0.38-1.17-1.01-1.87-1.14c-9.12-1.74-18.29-4.95-27.37-4.71c-10.87,0.28-19.62-5.11-29.46-7.3
			c-13.83-3.08-23.53-15.41-38.12-16.69c-1.03-0.09-2.16-0.9-2.93-1.68C859.79,937.28,855.25,932.49,850.68,927.73z M1086.48,967.78
			c-0.79,0.39-1.58,0.77-2.36,1.16c0.89,2.69,1.04,6.09,2.82,7.93c4.51,4.69,9.85,8.44,18.01,7.76
			C1101.29,974.79,1092.68,972.69,1086.48,967.78z"/>
		<path class="st3" d="M850.68,927.73c4.57,4.76,9.11,9.55,13.74,14.25c0.77,0.78,1.9,1.59,2.93,1.68
			c14.59,1.27,24.3,13.61,38.12,16.69c9.84,2.19,18.59,7.58,29.46,7.3c9.08-0.24,18.25,2.97,27.37,4.71
			c0.7,0.13,1.88,0.76,1.87,1.14c-0.22,8.64,13.2,11.46,9.3,21.87c-0.47,1.24,1.77,4.97,3.13,5.19c8.91,1.45,17.95,2.98,26.9,2.77
			c2.4-0.06,2.34-1.32,3.63,1.52c3.77,8.32,7.86,8.48,14.55,1.8c7.13,11.1,17.36,17.71,30.09,20.88c5.67,3.04,11.44,5.93,17,9.17
			c7.56,4.4,15.07,8.92,22.42,13.66c8.1,5.23,7.83,5.25,2.9,12.7c-2.95,4.46-6.2,9.1-7.61,14.14c-2.54,9.05-6.04,16.44-15.02,21.16
			c-5.79,3.04-5.07,6.26,1.15,8.27c6.8,2.2,13.89,3.53,20.71,5.7c1.69,0.54,3.93,2.88,3.88,4.32c-0.05,1.47-2.72,4.19-4.04,4.07
			c-6.69-0.61-10.46,3.85-15.05,7.25c-1.82,1.35-4.68,1.28-7.07,1.86c0.89-2.36,1.77-4.71,2.93-7.77c-3.81-1.25-7.93-2.6-13.54-4.44
			c2.85,10.91-3.94,13.28-11.12,15.09c3.07,4.18,6.71,7.44,8.06,11.48c1.09,3.27-0.58,7.45-0.9,10.21
			c-6.42-2.77-12.96-5.91-19.75-8.37c-2.78-1.01-8.02-1.81-8.87-0.54c-5.86,8.83-9.76,3.74-14.83-0.75c-2.34-2.07-6.42-2.65-9.8-3
			c-17.1-1.76-33.19-6.4-49.38-12.45c-10.65-3.98-19.25-10.62-29.18-15.27c-10.36-4.86-20.32-10.58-30.5-15.82
			c-15.26-7.85-30.49-15.75-45.87-23.36c-25.43-12.59-50.97-24.96-76.46-37.42c-4.37-37.98-1.43-75.97-0.11-113.95
			c0.06-1.83,2.38-3.57,5.83-5.2c0.52,6.24,1.42,12.47,1.48,18.71c0.22,24.07,0.19,48.15,0.22,72.22
			c0.01,6.67,0.19,13.23,8.81,18.17c6.88-37.76,13.56-74.46,20.38-111.89C823.45,918.47,835.22,929.85,850.68,927.73z
			 M1013.89,1042.22c-6.11-2.09-12.66-3.4-18.22-6.49c-6.67-3.71-13.08-4.12-19.94-3.2c-0.36,0.86-0.72,1.72-1.08,2.58
			c9.85,5.48,19.7,10.95,29.54,16.43c2.19,6.92,9.32,4.41,11.97,3.49c3.9-1.35,6.38-6.82,9.46-10.54c-0.55-0.76-1.1-1.51-1.65-2.27
			C1020.62,1042.22,1017.25,1042.22,1013.89,1042.22z"/>
		<path class="st4" d="M1088.76,855.6c-7.06-1.56-14.11-3.13-21.17-4.69c-0.81-0.68-2.01-2.13-2.38-1.94
			c-7.73,3.94-14.44,0.76-21.12-2.77c-5.96-4.35-10.7-11.72-13.04-16.71c-1.33-2.84-4.82-5.56-7.91-6.53
			c-9.26-2.89-18.8-4.88-28.23-7.23c-1.42-0.82-2.84-1.64-4.26-2.45c-1.02-2.87-2.04-5.75-3.06-8.62
			c-7.41-5.83-13.92-13.9-24.51-13.05c-4.74,0.38-7.87,0.07-10.6-4.12c-1.06-1.63-3.93-2.08-5.98-3.06
			c-1.38-0.08-3.96-0.34-3.98-0.22c-1.22,8.15-8.06,5.29-9.91,3.02c-7.78-9.54-19.18-10.19-29.35-14.09
			c-8.12-3.11-15.78-7.42-23.7-11.1c-3.68-1.71-7.85-2.64-11.09-4.92c-3.28-2.31-5.18-6.78-8.6-8.61c-3.81-2.04-8.83-1.67-12.95-3.3
			c-2.69-1.06-4.98-3.58-6.96-5.87c-3.1-3.61-5.73-7.07-11.56-5.32c-1.39,0.42-4.51-2.11-5.62-3.99c-5.3-8.99-5.23-9.1-16.28-5.1
			c-1.48-1.2-3.21-2.2-4.38-3.64c-5.36-6.59-4.44-8.92,3.81-10.21c10.81-1.69,12.56-4.45,6.68-13.51
			c-3.47-5.34-8.82-9.52-13.57-13.97c-5.28-4.94-10.84-9.58-16.28-14.35c0.5-0.47,0.98-0.96,1.43-1.48
			c7.8,2.14,15.53,4.65,23.43,6.33c11.7,2.5,15.55-1.34,12.52-12.84c-1.24-4.71-3.84-9.41-6.95-13.2c-4.74-5.78-4.02-9.31,2.72-12.1
			c1.39-0.58,2.54-1.72,4.61-3.17c-4.79-7.41-9.51-14.73-14.24-22.04c0,0-0.27,0.14-0.27,0.14c2.86,0.14,5.81-0.14,8.56,0.48
			c7.86,1.8,15.65,3.96,23.46,5.98c6.89,1.09,13.79,2.18,20.95,3.31c-0.29,7.57,3.26,11.62,11.42,11.74
			c1.42,0.02,2.89,0.59,4.25,1.11c5.98,2.31,11.82,5.02,17.9,7.01c18.35,6,37.16,10.81,55.05,17.93
			c9.52,3.79,20.47,7.27,25.43,18.47c1.09,2.46,4.28,4.33,6.9,5.72c4.87,2.59,9.89,5.06,15.11,6.81
			c11.98,4.01,23.11,8.99,29.76,20.62c0.29,0.5,1.36,0.59,2.09,0.8c9.88,2.81,18.61,7.65,27.13,13.43
			c4.45,3.01,10.61,3.5,15.99,5.13c0.72,0.08,1.43,0.2,2.14,0.36c9.62,8.37,11.65,20.18,14.88,30.24c-1.95,0.61-4.6,0.63-5.26,1.79
			c-1.64,2.89-2.85,6.23-3.26,9.51c-0.18,1.44,1.98,3.18,3.08,4.78c1.44,1.13,2.84,2.33,4.33,3.39c4.6,3.29,9.06,6.83,13.96,9.58
			c1.36,0.76,4.08-0.93,6.18-1.49c-0.85-1.91-1.18-4.57-2.65-5.61c-5.49-3.87-11.35-7.2-17.07-10.74
			c6.23-5.55,14.08-6.89,18.56-1.67c5.16,6.01,11.2,7.14,18.25,6.78c10.75,10.68,21.79,21.11,32.08,32.23
			c2.69,2.9,3.07,7.94,4.71,12.53c-4.98-0.8-8.61-1.06-12.03-2.04c-2.07-0.59-4.22-1.93-5.65-3.54
			c-6.19-6.98-13.38-10.78-22.09-11.83c-4.06-0.49-8.01-1.83-13.82-3.21c3.49,5.86,6.28,10.56,9.68,16.29
			c-4.69,0.69-8.99,1.33-14.16,2.1c4.64,9.51,10.73,15.26,20.95,19.02c9.57,3.52,17.52,11.54,26.07,17.73
			c3.37,2.43,6.42,5.3,9.68,7.89c2.48,1.98,7.63,3.47,0.88,6.9c-0.26,0.13,2.44,6.17,3.83,9.42c1.11,2.6,2.31,5.16,3.48,7.74
			c-2.92,0.56-6.05,2.09-8.7,1.48c-5.51-1.26-10.76-3.66-16.12-5.59c-0.77-0.48-1.54-0.97-2.3-1.45l-0.52-0.63
			c-12.67-8.12-25.15-16.56-38.13-24.15C1097.73,855.3,1092.88,856.07,1088.76,855.6z M1031.37,749.25
			c0.2,8.41,8.58,8.59,12.98,12.73c0.44,0.42,2.67-0.1,3.04-0.76c0.65-1.17,1.02-2.94,0.61-4.17
			C1046.25,751.72,1038.73,748.3,1031.37,749.25z"/>
		<path class="st5" d="M416.99,762.73c8.4,7.61,18.06,3.57,27.3,2.79c1.96-0.17,4.46-3.16,5.55-2.59c4.11,2.11,7.85,5.01,11.5,7.9
			c1.83,1.45,3.48,5.25,4.68,5.03c13.02-2.32,18.27,6.08,21.7,14.71c7.26-3.08,13.9-5.86,20.51-8.7c4.24-1.82,8.29-4.37,12.7-5.45
			c4.48-1.09,8.55-0.09,8.26,6.29c-0.22,4.84,1.53,6.15,7.1,5.44c11.04-1.41,20.79,4.12,30.04,9.3c7.52,4.22,14.94,6.25,23.63,7.22
			c11.19,1.24,22.01,5.9,32.89,9.39c0.71,0.23,0.88,3.08,0.79,4.68c-0.13,2.2-0.76,4.38-1.17,6.56
			c-21.04,12.21-19.93,15.2-3.88,31.08c11.13,11.01,25.54,18.71,38.43,27.95c3.53,2.53,6.88,5.31,10.31,7.97
			c-0.41,0.71-0.81,1.42-1.22,2.12c-5.83-0.97-11.64-2.35-17.51-2.8c-6.54-0.51-13.2-0.7-19.71-0.08c-9.68,0.91-12.2,7.58-6.3,15.55
			c0.68,0.92,1.56,1.73,2.45,2.47c11.88,9.99,23.58,20.21,35.73,29.86c8.6,6.82,12.63,7.37,25.41,5.52
			c-7.85-17.24-24.65-24.04-38.89-36.03c4.55,0.37,7.67-0.05,10.25,0.94c23.46,9.07,46.9,18.22,70.12,27.87
			c2.27,0.94,3.9,5.3,4.41,8.32c4.58,27.11,8.84,54.27,13.19,81.42c-7.43-3.07-15.06-5.66-19.53-13.35
			c-1.23-2.12-4.11-3.97-6.58-4.59c-17.71-4.5-32.17-15.54-47.78-24.05c-14.91-8.12-30.44-13.65-46.6-18.25
			c-6.08-1.73-11.7-5.21-17.37-8.2c-0.9-0.47-1.73-3.06-1.25-3.85c3.75-6.15-1.53-8.28-4.91-10.79c-2.38-1.77-5.66-2.25-8.36-3.66
			c-9.43-4.9-23.18-3.93-25.47-18.6c-8.77-5.27-17.16-11.43-26.46-15.47c-5.71-2.48-12.64-9.3-19.52-0.79
			c-0.41,0.5-3.34-1.25-5.16-1.63c-2.38-0.49-4.82-0.65-7.24-0.96c0.14,2.51,0.12,5.04,0.5,7.51c0.15,0.96,1.22,1.78,2.12,3.01
			c-5.02,2.11-10.37,6.42-14.35,1.18c-3.02-3.97-9.43-1.89-10.78-8.6c-1.31-6.56-8.32-4.37-12.97-4.27
			c-15.86,0.34-28.46-7.06-40.07-16.53c-3.74-3.05-9.73-7.26-1.22-12.44c0.93-0.57,0.45-3.93,0.11-5.91
			c-0.16-0.9-1.62-1.54-2.41-2.38c-6.13-6.51-17.22-7.31-20-18c-0.55-2.11-4.8-3.72-7.65-4.69c-14.8-5.07-29.72-9.8-44.55-14.77
			c-8.72-2.92-17.41-6-23.26-13.77c-1.06-1.41-1.84-3.03-2.74-4.55c1.89-0.92,3.71-2.36,5.7-2.66c4.18-0.63,8.56-0.15,12.64-1.08
			c4.83-1.09,6.58-3.79,1.84-8.43c8.63,2.18,17.26,4.37,25.9,6.52c1.48,0.37,3.04,0.79,4.52,0.69c8.41-0.57,15.44,1.14,22,7.53
			c3.74,3.63,10.48,4.49,16.05,5.76c2.17,0.49,5.68-0.62,7.04-2.28c1.08-1.32,0-4.6-0.46-6.94c-0.42-2.09-1.31-4.08-1.99-6.11
			c2.4-0.03,4.82-0.26,7.2-0.04c3.01,0.28,6.07,4.37,8.83-0.94c1.35-2.6,6.44-3.43,0.09-7.05c-4.42-2.52-14.6-9.28-19.18-11.31
			c-7.86-3.48-15.07-8.42-22.55-12.75c1.6-2.54,2.76-6.66,4.91-7.28C408.23,761.65,412.74,762.62,416.99,762.73z"/>
		<path class="st6" d="M750.67,493.97c2.63,4,4.74,8.51,8,11.91c8.51,8.85,7.57,23.4-2.76,29.63c-1.9,1.15-5.17,0.69-7.63,0.15
			c-7.13-1.56-14.1-3.92-21.27-5.24c-9.68-1.79-17.28,3.06-23.42,9.7c-1.93,2.09-1.42,6.43-2.03,9.74
			c-11.68-7.92-23.77-14.24-38.7-11.53c-3.3,0.6-6.83-0.08-10.26-0.18c-2.55-6.36-8.71-7.12-14.09-9.09
			c-3.11-9.5-8.62-15.37-19.65-13.43c-1.79,0.31-3.91-0.23-5.66-0.94c-9.02-3.64-17.87-7.7-26.96-11.16
			c-11.98-4.55-24.14-8.65-36.19-13.01c-3.2-1.16-5.39-1.75-7.1,2.61c-3.59,9.14-8.14,17.9-11.99,26.95
			c-1.13,2.67-1.25,5.77-1.83,8.67c-14.84-8.54-27.14-20.29-40.01-31.35c-1.98-1.7-4.72-3.07-7.27-3.42
			c-5.62-0.76-9.58-1.31-7.28-9.11c0.6-2.03-4.96-6.14-8.04-8.88c-1.64-1.45-4.85-1.51-5.92-3.14c-1.76-2.67-2.37-6.11-3.46-9.22
			c2.4-0.68,4.77-1.6,7.22-1.96c2.26-0.33,4.61-0.07,7.49-0.07c-3.42-5.03-7.09-9.21-3.24-15.05c0.73-1.11-0.09-3.23-0.2-4.89
			c-1.6,0.22-3.24,0.31-4.8,0.68c-1.97,0.47-3.88,1.19-5.81,1.8c-0.37-1.97-0.74-3.94-1.11-5.91c-0.98-5.21-2.08-10.4-2.87-15.64
			c-0.24-1.56,0.37-3.26,0.59-4.89c1.38,0.41,2.92,0.56,4.11,1.28c6.17,3.78,12.2,7.79,18.41,11.5c1.1,0.65,2.84,0.23,5.15,0.35
			c-0.99-4.01-2.16-7.21-2.45-10.49c-0.21-2.29,0.27-4.97,1.33-7c5.25-10.03,10.79-19.91,17.17-31.56
			c15.89,5.79,33.54,12.18,51.15,18.67c8.96,3.31,17.21,8.28,27.5,7.97c5.02-0.16,10.74,2.06,10.48,9.74
			c-0.08,2.34,2.11,4.77,3.62,7.88c-4.62-0.69-8.95-1.33-15.23-2.26c2.28,3.46,3.52,7.14,4.92,7.19c11.6,0.47,9,9.89,11.47,15.58
			c-4.71-1.33-9.11-2.38-13.38-3.83c-3.61-1.22-7.31-2.49-10.52-4.47c-3.55-2.19-6.39-5.5-9.9-7.76c-2.76-1.77-6.65-4.32-8.96-3.5
			c-2.11,0.75-3.57,5.5-3.86,8.62c-0.39,4.33,1.09,8.07,6.26,9.67c19.46,6.02,38.81,12.4,58.22,18.57
			c9.11,2.9,18.23,5.77,27.43,8.34c2.87,0.8,6.02,0.59,9.96-0.78c-4.47-3.75-8.91-7.53-13.41-11.23
			c-4.31-3.54-11.62-4.34-10.93-12.5c0.07-0.82-2.98-1.93-4.61-2.87c-6.23-3.58-12.47-7.15-18.7-10.73c0.11-0.95,0.21-1.9,0.32-2.85
			c6.26,0,12.53,0.12,18.79-0.05c2.81-0.08,5.59-0.77,8.4-1.09c1.4-0.16,3.18-0.73,4.17-0.11c6.34,3.95,12.75,7.86,18.67,12.4
			c5.76,4.42,10.88,9.66,16.44,14.36c1.34,1.14,3.22,1.8,4.96,2.29c9.23,2.55,18.55,4.8,27.73,7.49
			c6.89,2.02,11.09,8.25,18.32,10.83C728.95,481.48,740.31,487,750.67,493.97z M474.31,466.8c-0.33,0.8-0.65,1.61-0.98,2.41
			c3.22,1.9,6.36,3.93,9.66,5.67c9.36,4.94,9.57,4.81,13.45-5.92C489.05,468.24,481.68,467.52,474.31,466.8z"/>
		<path class="st7" d="M1070.03,729.43c-5.39-1.63-11.54-2.12-15.99-5.13c-8.51-5.77-17.25-10.62-27.13-13.43
			c-0.73-0.21-1.8-0.3-2.09-0.8c-6.65-11.63-17.78-16.61-29.76-20.62c-5.22-1.74-10.23-4.22-15.11-6.81
			c-2.62-1.39-5.8-3.25-6.9-5.72c-4.96-11.2-15.91-14.68-25.43-18.47c-17.89-7.12-36.7-11.93-55.05-17.93
			c-6.08-1.99-11.92-4.69-17.9-7.01c-1.36-0.53-2.83-1.09-4.25-1.11c-8.17-0.12-11.72-4.17-11.42-11.74
			c-7.16-1.13-14.06-2.22-20.95-3.31c4.69-1.61,9.39-3.23,15.08-5.19c-16.46-30.63-46.88-45.21-71.35-67.02
			c5.02,0.68,10.04,1.36,16.07,2.18c-1.41-4.87-2.63-8.77-3.66-12.71c-3.96-15.09-1.49-18.83,14.36-21.92
			c-0.08,6.75,3.45,10.23,9.83,11.95c16.7,4.53,33.54,8.72,49.89,14.33c13.95,4.79,27.3,11.34,40.89,17.17
			c1.75,0.75,4.45,1.5,4.87,2.83c2.79,8.8,9.09,12.8,17.63,14.57c1.25,0.26,1.9,2.84,3.08,4.09c0.87,0.93,3.05,2.18,3.15,2.06
			c6.16-7.52,11,0.25,14.42,2.53c8.07,5.38,14.8,12.76,22.07,19.34c0.55,0.5,0.92,1.34,1.55,1.61
			c14.31,6.31,28.48,12.97,43.02,18.69c11.06,4.35,13.51,7.49,13.62,19.04c0.06,6.39,1.9,12.74,2.56,19.14
			c1.21,11.7,7.92,18.28,19.33,18.38c0.96,0.01,1.94-0.91,3.56-1.73c-6.21-5.12-12.03-9.91-18.8-15.49
			c6.84-2.07,12.86-3.88,18.25,1.45c3.67,3.62,7.27,4.12,12.46,3.75c4.16-0.3,8.88,1.56,11.89,7.52
			c3.6,7.14,10.26,13.19,16.71,18.31c7.42,5.9,12.33,12.39,12.3,21.76c-4.53-1.23-9.25-2.14-13.64-3.87
			c-1.86-0.74-3.33-3.03-4.47-4.92c-4.83-8.03-12.34-10.64-21.14-11.12c-4.12-0.23-8.22-0.99-13.71-1.68
			c4.79,7.96,8.86,14.71,13.81,22.93c-5.61-0.61-9.88-1.08-14.86-1.63C1056.72,723.26,1065.13,724.91,1070.03,729.43z
			 M997.96,654.92c2.55-11.71-3.33-15.77-17.74-11.55C986.78,647.64,992.19,651.16,997.96,654.92z"/>
		<path class="st4" d="M529.15,528.76c0.58-2.9,0.69-6,1.83-8.67c3.85-9.05,8.4-17.81,11.99-26.95c1.71-4.36,3.89-3.77,7.1-2.61
			c12.05,4.36,24.21,8.46,36.19,13.01c9.09,3.45,17.94,7.52,26.96,11.16c1.75,0.7,3.87,1.25,5.66,0.94
			c11.03-1.94,16.54,3.93,19.65,13.43c-0.21,1.53-0.2,4.29-0.67,4.38c-3.24,0.59-6.58,0.62-10.72,0.88
			c3.2,8.6,14.66,10.85,13.43,21.29c-6.49-2.34-12.81-3.75-18.22-6.79c-6.24-3.5-11.71-8.38-17.46-12.73
			c-3.41-2.58-7.22-4.26-9.99,0.05c-3.86,6.01,0.88,17.63,7.95,20.16c5.69,2.04,11.51,3.76,17.36,5.31
			c8.1,2.15,16.57,3.26,24.37,6.17c13.17,4.92,25.38,12.71,40.15,12.44c4.11,15.15,11.9,27.77,25.67,35.9
			c4.65,2.74,4.85,6.16,4.01,10.76c-1.7,9.34-0.97,18.39,3.45,27.14c3.72,7.37,2.47,11.22-5.03,14.91
			c-5.83,2.86-12.21,4.6-18.34,6.84c-6.42-7.7-14.7-9.13-24.47-9.6c-12.85-0.62-25.78-2.99-34.77-14.56
			c-2.65-3.42-7.27-5.96-11.49-7.38c-10.81-3.62-21.15-7.89-30.45-14.65c-5.79-4.21-12.1-3.67-18.45-0.69
			c-2.69,1.26-5.69,1.88-8.54,2.8c-12.71-10.49-23.72-23.13-38.99-30.37c-1.32-0.63-2.71-2.68-2.77-4.12
			c-0.29-7.18-4.09-10.93-10.81-12.39c-1.43-0.31-3.35-0.81-3.97-1.86c-1.67-2.82-2.76-5.98-4.07-9c2.5-0.99,4.95-2.19,7.53-2.88
			c1.81-0.49,3.81-0.28,6.32-0.41c-1.5-3.97-4.47-7.89-3.69-10.83c0.79-2.99,5.26-5.01,8.85-8.08c-9.76-5.95-20.63-9.58-22.59-23.49
			c9.14,3.62,17.82,7.06,26.49,10.5c1.05,1.29,2.09,2.57,3.14,3.86c0.5-0.45,1.01-0.91,1.51-1.36c-1.18-1.24-2.36-2.48-3.55-3.72
			C529.52,534.61,529.33,531.68,529.15,528.76z M525.03,576.65c-0.3,1.08-0.59,2.16-0.89,3.24c6.03,2.2,12.03,4.53,18.15,6.46
			c0.96,0.3,3.5-1.16,3.54-1.9c0.07-1.37-0.83-3.2-1.92-4.15C538.36,575.44,532.01,574.17,525.03,576.65z"/>
		<path class="st8" d="M1123.18,776.35c-7.05,0.36-13.09-0.76-18.25-6.78c-4.48-5.22-12.33-3.88-18.56,1.67
			c-1.58,1.62-3.17,3.24-4.75,4.87c-1.1-1.6-3.27-3.34-3.08-4.78c0.42-3.28,1.62-6.62,3.26-9.51c0.66-1.16,3.3-1.18,5.26-1.79
			c-3.23-10.07-5.26-21.88-14.88-30.24c4.24,1.64,9.06,2.49,12.6,5.08c7.84,5.73,15.1,12.26,22.41,18.68
			c1.17,1.03,2.02,3.24,1.88,4.81c-0.83,9.4,3.1,14.51,12.65,15.25C1122.27,773.64,1122.69,775.39,1123.18,776.35z"/>
		<path class="st9" d="M1121.21,962.38c0.94-5.66,1.21-11.54,2.98-16.93c2.61-7.91,11.35-11.27,20-8.58
			c-1.55,10.5-2.19,10.98-17.59,12.55c8.95,11.1,23.34,7.87,34.51,16.06c-2.91,2.02-5.52,4.24-8.48,5.75
			c-2.29,1.17-5.77,0.67-7.42,2.26c-4.92,4.72-7.12,4.86-10.74-1.92C1132.22,967.36,1125.77,965.37,1121.21,962.38z"/>
		<path class="st10" d="M1088.76,855.6c4.12,0.47,8.97-0.3,12.25,1.62c12.98,7.6,25.46,16.03,38.13,24.15
			c-2.34,0.94-4.68,1.87-7.01,2.81c-6.32-2.65-12.82-4.94-18.9-8.05c-7.45-3.81-14.25-8.98-21.89-12.27
			C1086.09,861.6,1088.89,858.53,1088.76,855.6z"/>
		<path class="st11" d="M424.11,678.5c10.74-1.47,16.68,7.21,25.09,10.68c-0.1,0.91-0.19,1.81-0.29,2.72
			c-5.11,0.13-10.22,0.19-15.33,0.41c-3.73,0.16-8.05-0.73-9.35,4.52c-8.56-3.84-8.46-4.06-3.72-10.29
			C422.18,684.34,427.3,683.07,424.11,678.5z"/>
		<path class="st12" d="M540.65,636.17c-1.54-2.94-3.08-5.89-4.63-8.83c10.12,0.57,15.56,6.71,16.28,18.36l0.12-0.11
			c-3.28,0-6.56,0-8.88,0C542.39,641.83,541.52,639,540.65,636.17z"/>
		<path class="st10" d="M1139.66,882c0.77,0.48,1.54,0.97,2.3,1.45C1141.19,882.97,1140.43,882.49,1139.66,882z"/>
		<path class="st13" d="M684.72,580.23c-14.77,0.27-26.97-7.52-40.15-12.44c-7.8-2.91-16.27-4.02-24.37-6.17
			c-5.85-1.55-11.67-3.27-17.36-5.31c-7.07-2.53-11.81-14.16-7.95-20.16c2.77-4.31,6.57-2.63,9.99-0.05
			c5.75,4.35,11.22,9.24,17.46,12.73c5.42,3.03,11.73,4.45,18.22,6.79c1.23-10.45-10.22-12.69-13.43-21.29
			c4.14-0.26,7.48-0.29,10.72-0.88c0.47-0.09,0.46-2.85,0.67-4.38c5.38,1.96,11.54,2.73,14.09,9.09c-5.05,4.98,0.72,6.86,3.11,8.5
			c4.61,3.15,12.9,4.14,14.38,8.04c3.49,9.17,12.56,11.65,17.57,18.46C686.7,575.51,685.71,577.87,684.72,580.23z"/>
		<path class="st14" d="M687.68,573.15c-5.02-6.81-14.08-9.29-17.57-18.46c-1.48-3.9-9.77-4.88-14.38-8.04
			c-2.4-1.64-8.17-3.52-3.11-8.5c3.43,0.09,6.96,0.78,10.26,0.18c14.93-2.71,27.02,3.61,38.7,11.53
			C704.56,561.3,701.92,565.74,687.68,573.15z"/>
		<path class="st4" d="M806.3,610.75c-0.27-0.52-0.54-1.04-0.81-1.55c0.31,0.06,0.62,0.11,0.92,0.17c-0.13,0.51-0.26,1.02-0.38,1.53
			L806.3,610.75z"/>
		<path class="st4" d="M782.78,669.26c-0.41-0.64-0.81-1.27-1.22-1.91c0.88,0.14,1.77,0.29,2.65,0.43
			C783.75,668.29,783.28,668.79,782.78,669.26z"/>
		<path class="st15" d="M540.65,636.17c0.87,2.83,1.74,5.66,2.89,9.42c2.32,0,5.6,0,8.88,0c0,2.25,0,4.5,0,7.27
			c-8.5-6.08-21.78,2.65-27.4-9.93C530.42,640.59,535.53,638.38,540.65,636.17z"/>
		<path class="st16" d="M946.51,784.43c2.05,0.99,4.92,1.43,5.98,3.06c2.74,4.19,5.86,4.5,10.6,4.12
			c10.59-0.85,17.1,7.21,24.51,13.05c0.76,2.96-3.06,7.56,3.06,8.62c1.42,0.82,2.84,1.64,4.26,2.45c-8.8,0.49-15.98-2.15-22.94-8.16
			c-6.77-5.85-15.54-9.33-23.15-14.29C945.92,791.39,941.41,788.88,946.51,784.43z"/>
		<path class="st17" d="M1048.6,860.3c-10.05-2.03-19.64-4.96-26.28-13.59c3.5,0.67,7.2,0.83,10.45,2.12
			c4.66,1.86,9.08,5,11.33-2.64c6.69,3.53,13.4,6.71,21.12,2.77c0.37-0.19,1.57,1.26,2.38,1.94c-0.78,0.76-1.9,1.38-2.28,2.3
			C1062.08,861.2,1055.73,861.62,1048.6,860.3z"/>
		<path class="st18" d="M1086.48,967.78c6.21,4.92,14.82,7.02,18.46,16.86c-8.16,0.67-13.49-3.07-18.01-7.76
			c-1.77-1.84-1.93-5.24-2.82-7.93C1084.9,968.55,1085.69,968.16,1086.48,967.78z"/>
		<path class="st19" d="M1004.2,1051.54c-9.85-5.48-19.7-10.95-29.54-16.43c0.36-0.86,0.72-1.72,1.08-2.58
			c6.86-0.92,13.27-0.51,19.94,3.2c5.56,3.09,12.11,4.39,18.22,6.49C1010.66,1045.32,1007.43,1048.43,1004.2,1051.54z"/>
		<path class="st20" d="M1004.2,1051.54c3.23-3.11,6.46-6.21,9.69-9.32c3.36,0,6.73,0,10.09,0c0.55,0.76,1.1,1.51,1.65,2.27
			c-3.08,3.72-5.56,9.18-9.46,10.54C1013.52,1055.94,1006.39,1058.46,1004.2,1051.54z"/>
		<path class="st21" d="M1081.62,776.11c1.58-1.62,3.17-3.24,4.75-4.87c5.72,3.54,11.58,6.87,17.07,10.74
			c1.47,1.04,1.8,3.69,2.65,5.61c-2.1,0.56-4.82,2.25-6.18,1.49c-4.91-2.74-9.37-6.29-13.96-9.58
			C1084.46,778.44,1083.06,777.24,1081.62,776.11z"/>
		<path class="st22" d="M1031.37,749.25c7.36-0.96,14.88,2.47,16.63,7.8c0.4,1.23,0.04,3-0.61,4.17c-0.37,0.66-2.59,1.18-3.04,0.76
			C1039.95,757.84,1031.58,757.66,1031.37,749.25z"/>
		<path class="st2" d="M990.66,813.28c-6.12-1.07-2.29-5.66-3.06-8.62C988.62,807.54,989.64,810.41,990.66,813.28z"/>
		<path class="st23" d="M474.31,466.8c7.37,0.72,14.75,1.44,22.13,2.17c-3.87,10.73-4.08,10.86-13.45,5.92
			c-3.3-1.74-6.45-3.77-9.66-5.67C473.65,468.41,473.98,467.61,474.31,466.8z"/>
		<path class="st24" d="M997.96,654.92c-5.77-3.76-11.18-7.28-17.74-11.55C994.63,639.15,1000.5,643.21,997.96,654.92z"/>
		<path class="st25" d="M525.03,576.65c6.98-2.48,13.33-1.2,18.88,3.65c1.09,0.95,1.98,2.78,1.92,4.15c-0.03,0.73-2.58,2.2-3.54,1.9
			c-6.12-1.93-12.11-4.26-18.15-6.46C524.44,578.8,524.74,577.73,525.03,576.65z"/>
	</g>
</g>
</svg>
