<?xml version="1.0" encoding="utf-8"?>
<!-- Generator: Adobe Illustrator 25.0.0, SVG Export Plug-In . SVG Version: 6.00 Build 0)  -->
<svg version="1.1" id="Capa_1" xmlns="http://www.w3.org/2000/svg" xmlns:xlink="http://www.w3.org/1999/xlink" x="0px" y="0px"
	 viewBox="0 0 197 198" style="enable-background:new 0 0 197 198;" xml:space="preserve">
<style type="text/css">
	.st0{fill:none;stroke:#1D71B8;stroke-width:4;stroke-miterlimit:10;}
	.st1{fill:#FFFFFF;stroke:#000000;stroke-miterlimit:10;}
	.st2{fill:none;stroke:#000000;stroke-miterlimit:10;}
	.st3{fill:none;stroke:#1D71B8;stroke-width:3;stroke-miterlimit:10;}
	.st4{fill:none;stroke:#1D71B8;stroke-width:2;stroke-miterlimit:10;}
</style>
<path class="st0" d="M143.7,179H54.4c-21.1,0-38.3-17.2-38.3-38.3V51.5c0-21.1,17.2-38.3,38.3-38.3h89.3c21.1,0,38.3,17.2,38.3,38.3
	v89.3C182,161.8,164.8,179,143.7,179z"/>
<rect x="902.3" y="265.8" class="st1" width="0" height="59.3"/>
<path class="st2" d="M816.8,90h22c2.3,0,4.1-1.9,4.1-4.1V47.1c0-2.3-1.9-4.1-4.1-4.1h-22c-2.3,0-4.1,1.9-4.1,4.1v38.8
	C812.7,88.1,814.6,90,816.8,90z"/>
<path class="st0" d="M132,155.6H67.1c-15.1,0-27.5-12.4-27.5-27.5V63.1C39.6,48,52,35.6,67.1,35.6H132c15.1,0,27.5,12.4,27.5,27.5
	v64.9C159.6,143.2,147.2,155.6,132,155.6z"/>
<path class="st0" d="M129,143.4H70c-10.9,0-19.7-8.9-19.7-19.7V67.5c0-10.9,8.9-19.7,19.7-19.7h59c10.9,0,19.7,8.9,19.7,19.7v56.2
	C148.8,134.6,139.9,143.4,129,143.4z"/>
<circle class="st3" cx="100.2" cy="97.3" r="31.7"/>
<circle class="st4" cx="131.9" cy="63.8" r="8.5"/>
<circle class="st4" cx="100.2" cy="97.3" r="21.2"/>
</svg>
