<?xml version="1.0" encoding="utf-8"?>
<!-- Generator: Adobe Illustrator 25.0.0, SVG Export Plug-In . SVG Version: 6.00 Build 0)  -->
<svg version="1.1" id="Capa_1" xmlns="http://www.w3.org/2000/svg" xmlns:xlink="http://www.w3.org/1999/xlink" x="0px" y="0px"
	 viewBox="0 0 1500 1500" style="enable-background:new 0 0 1500 1500;" xml:space="preserve">
<g>
	<g>
		<path d="M972.82,1162.45c-10.41-5.63-9.72-12.79-9.7-19.92c0.07-30,0.06-60-0.18-89.99c-0.04-5.62-1.29-11.23-2.68-22.59
			c-4.54,7.28-7.34,9.68-7.35,12.09c-0.27,45.87-2.99,91.98,0.86,137.53c2.14,25.26,2.35,50.47,4.19,75.65
			c1.39,19.02,3.48,37.98,5.1,56.99c0.36,4.18,0.05,8.41-2.15,12.86c-22.83-87.57-41.68-175.73-52.98-266.5
			c-32.8-11.92-64.54-30.82-100.81-38.24c16.34,15.24,38.52,23.42,49.35,45.19c-13.15,4.43-23.59-0.73-33.2-8.96
			c-12.56-10.75-25.04-21.58-37.52-32.43c-5.3-4.61-5.43-5.13-6.81-19.29c20.44-4.34,40.58-1.6,61.22,2.93
			c-25.44-22.61-60.79-32.57-76.23-65.78c11.78-19.5,29.89-18.79,50.58-15.22c-10.65-10.85-21.17-21.84-31.99-32.52
			c-8.99-8.88-9.06-8.8-8.97-27.37c11.68-0.72,23.56-1.45,35.57-2.19c-3.57-13.76-19.6-21.66-14.34-39.25
			c14.5-10.88,29.22-2.86,44.04,2.35c29.62,10.41,54.25,29,78.67,47.99c3.21,2.49,6.84,4.43,14.28,9.18
			c-1.84-7.12-1.76-11.66-3.39-12.4c-17.12-7.74-22.92-25.38-33.77-38.47c-6.95-8.39-7.43-19.09-4.49-30.17
			c39.27,7.31,69.32,30.23,97.54,56.13c11,10.09,21.18,21.08,31.93,31.45c0.73,0.71,3.12-0.31,4.74-0.53
			c-6.66-23.97-30.17-51.55-112.23-131.3c-4.97,0.84-11.78,1.13-18.01,3.19c-32.37,10.69-64.53,21.99-96.93,32.59
			c-3.99,1.31-8.9-0.23-18.28-0.68c17.95-15.89,36.03-21.19,52.33-29.15c17.5-8.54,36.23-14.48,54.19-22.13
			c7.09-3.02,12.49-10.49,8.13-16.92c-9.17-13.51-5.17-27.37-4.33-42.49c-18.74-10.56-31.8-26.16-35.3-50.37
			c2.54-1.59,6.72-4.04,10.73-6.76c7.43-5.02,12.86-11.94,10.5-21.03c-1.68-6.48-3.36-12.22,2.43-16.55
			c7.62-5.7,15.83-11.39,26.12-9.06c10.61,2.4,21.02,5.65,31.42,8.51c17.04-25.92,17.04-25.92-4.21-44.54
			c-0.22-25.98,11.61-47.86,27.51-67.39c4.94-6.07,14.31-9.86,22.34-11.77c23.86-5.68,46.65-0.84,67.11,12.3
			c20.43,13.13,20.29,34.51,6.96,54.99c-5.26,8.08-12.25,15.04-21.19,18.67c-12.61,2.43-25.47,3.99-37.78,7.48
			c-18.49,5.25-19.62,7.5-16.7,25.18c0.8,4.86,3.28,9.43,5.98,16.85c-9.96-1.91-17.76-3.41-25.56-4.91
			c31.01,25.52,68,43.06,88.13,80.13c-19.47,7.77-20.34,7.68-57.2-5.32c6.8,10.09,13.1,19.46,19.99,29.69
			c-5.34,3.3-9.62,5.95-14.71,9.1c6.97,11.35,19.19,21.74,13.13,38.9c-15.98,5.09-28.79-7.54-46.18-8.73
			c12.29,19.3,41.17,22.88,42.29,50.89c-7.18,0.92-13.71,1.76-21.07,2.71c0.86,3.34,0.73,6.34,2.16,7.86
			c10.23,10.92,20.59,21.73,31.26,32.21c46.12,45.29,73.73,101.3,91.79,162.34c3.86,13.06,1.74,27.9,2.41,42.6
			c-9.12,4.18-16.39,4.19-24.46-2.21c-10.75-8.52-22.59-15.69-38.5-16.52c0,8.18,0,15.66,0,21.78c-7.66,8.3-10.89,7.5-52.39-11.62
			C988.45,1073.68,980.77,1117.28,972.82,1162.45z"/>
	</g>
</g>
</svg>
